<?xml version="1.0" encoding="utf-8"?>
<!-- Generator: Adobe Illustrator 21.0.0, SVG Export Plug-In . SVG Version: 6.00 Build 0)  -->
<svg version="1.1" id="Camada_1" xmlns="http://www.w3.org/2000/svg" xmlns:xlink="http://www.w3.org/1999/xlink" x="0px" y="0px"
	 viewBox="0 0 277 402" style="enable-background:new 0 0 277 402;" xml:space="preserve">
<style type="text/css">
	.st0{fill:#61EE37;}
	.st1{fill:#FFFFFF;}
</style>
<path class="st0" d="M230.8,166.6v-58.3c0-51.7-42.1-93.8-93.8-93.8s-93.7,42.1-93.7,93.8v58.3c-23.2,23.7-37.5,56-37.5,91.7
	c0,72.4,58.9,131.3,131.3,131.3s131.3-58.9,131.3-131.3C268.3,222.6,253.9,190.3,230.8,166.6z M155.8,314.5h-37.5v-56.3h37.5V314.5z
	 M193.3,139.7c-0.3-0.1-0.6-0.2-0.9-0.3c-16.8-7.9-35.5-12.4-55.3-12.4s-38.5,4.5-55.3,12.4c-0.3,0.1-0.6,0.2-0.9,0.3v-31.5
	c0-31,25.2-56.3,56.3-56.3s56.3,25.2,56.3,56.3v31.5H193.3z"/>
<rect x="66" y="234" class="st0" width="113" height="94"/>
<path class="st1" d="M193.3,139.7c0,0,29.3,17.5,37.5,26.9S236,115,236,115s-19.8-20.5-48.3-22.5S193.3,139.7,193.3,139.7z"/>
</svg>
