<?xml version="1.0" encoding="utf-8"?>
<!-- Generator: Adobe Illustrator 21.0.0, SVG Export Plug-In . SVG Version: 6.00 Build 0)  -->
<svg version="1.1" id="Camada_1" xmlns="http://www.w3.org/2000/svg" xmlns:xlink="http://www.w3.org/1999/xlink" x="0px" y="0px"
	 viewBox="0 0 44 44" style="enable-background:new 0 0 44 44;" xml:space="preserve">
<style type="text/css">
	.st0{fill:#0086FF;}
</style>
<path class="st0" d="M22,1.8c-11.2,0-20.3,9-20.3,20.3s9,20.3,20.3,20.3s20.3-9,20.3-20.3S33.2,1.8,22,1.8z M33.7,15.6L33.7,15.6
	L19,30.9c-0.2,0.2-0.4,0.3-0.6,0.3s-0.6-0.1-0.6-0.3l-7.2-7.7L10.3,23c-0.2-0.2-0.3-0.5-0.3-0.6s0.1-0.5,0.3-0.6l1.3-1.3
	c0.4-0.4,0.9-0.4,1.3,0l0.1,0.1L18,26c0.2,0.2,0.5,0.2,0.6,0L31,13.2h0.1c0.4-0.4,0.9-0.4,1.3,0l1.3,1.3
	C34.1,14.7,34.1,15.3,33.7,15.6z"/>
</svg>
