<?xml version="1.0" encoding="utf-8"?>
<!-- Generator: Adobe Illustrator 21.0.0, SVG Export Plug-In . SVG Version: 6.00 Build 0)  -->
<svg version="1.1" id="Camada_1" xmlns="http://www.w3.org/2000/svg" xmlns:xlink="http://www.w3.org/1999/xlink" x="0px" y="0px"
	 viewBox="0 0 511 512" style="enable-background:new 0 0 511 512;" xml:space="preserve">
<style type="text/css">
	.st0{fill:#0086FF;stroke:#0086FF;stroke-width:7;stroke-miterlimit:10;}
</style>
<path class="st0" d="M288.3,498.5h-78c-13,0-23.6-10.6-23.6-23.6V299h-45.5c-13,0-23.6-10.6-23.6-23.6V200c0-13,10.6-23.6,23.6-23.6
	h45.5v-37.7c0-37.4,11.8-69.3,34-92.1c22.3-22.9,53.5-35,90.2-35l59.5,0.1c13,0,23.6,10.6,23.6,23.6v70c0,13-10.6,23.6-23.6,23.6
	l-40,0c-12.2,0-15.3,2.4-16,3.2c-1.1,1.2-2.4,4.8-2.4,14.5v29.8h55.4c4.2,0,8.2,1,11.7,3c7.5,4.2,12.2,12.1,12.2,20.7l0,75.4
	c0,13-10.6,23.6-23.6,23.6H312v175.9C312,487.9,301.4,498.5,288.3,498.5z M215.3,469.9h68.1V286.2c0-8.7,7.1-15.8,15.8-15.8h63.5
	l0-65.5h-63.5c-8.7,0-15.8-7.1-15.8-15.8v-42.6c0-11.2,1.1-23.8,9.6-33.4c10.2-11.5,26.2-12.9,37.4-12.9l35.1,0V40.1l-54.5-0.1
	c-59,0-95.7,37.8-95.7,98.5v50.5c0,8.7-7.1,15.8-15.8,15.8h-53.4v65.5h53.4c8.7,0,15.8,7.1,15.8,15.8V469.9z M370.4,40.2L370.4,40.2
	L370.4,40.2z"/>
</svg>
