<svg id="Layer_5" enable-background="new 0 0 64 64" height="512" viewBox="0 0 64 64" width="512" xmlns="http://www.w3.org/2000/svg"><path d="m60 57h-1v-5c0-1.654-1.346-3-3-3h-1v-10h-6v10h-9v-5.236l-2.382-4.764h-1.618v-25c0-2.757 2.243-5 5-5s5 2.243 5 5v1h-1c-1.654 0-3 1.346-3 3s1.346 3 3 3h10c1.654 0 3-1.346 3-3s-1.346-3-3-3h-1v-1c0-7.168-5.832-13-13-13s-13 5.832-13 13v25h-1.618l-2.382 4.764v5.236h-9v-10h-6v10h-1c-1.654 0-3 1.346-3 3v5h-1c-1.654 0-3 1.346-3 3v3h62v-3c0-1.654-1.346-3-3-3zm-3-5v5h-13.026c.635-.838 1.026-1.87 1.026-3s-.391-2.162-1.026-3h12.026c.552 0 1 .448 1 1zm-36 2c0-1.654 1.346-3 3-3h16c1.654 0 3 1.346 3 3s-1.346 3-3 3h-16c-1.654 0-3-1.346-3-3zm30-13h2v8h-2zm5-23c0 .551-.448 1-1 1h-10c-.552 0-1-.449-1-1s.448-1 1-1h10c.552 0 1 .449 1 1zm-26-4c0-6.065 4.935-11 11-11s11 4.935 11 11v1h-4v-1c0-3.86-3.141-7-7-7s-7 3.14-7 7v25h-4zm6.382 27 1 2h-10.764l1-2zm-10.382 4h12v4h-12zm-15-4h2v8h-2zm-4 11c0-.552.448-1 1-1h12.026c-.635.838-1.026 1.87-1.026 3s.391 2.162 1.026 3h-13.026zm54 9h-58v-1c0-.552.448-1 1-1h20 16 20c.552 0 1 .448 1 1z"/><path d="m46.422 28.92c-.276.552-.422 1.171-.422 1.788v.292c0 2.206 1.794 4 4 4s4-1.794 4-4v-.292c0-.617-.146-1.236-.422-1.789l-3.578-7.155zm5.578 1.788v.292c0 1.103-.897 2-2 2s-2-.897-2-2v-.292c0-.309.073-.618.211-.894l1.789-3.578 1.789 3.578c.138.276.211.585.211.894z"/></svg>