<?xml version="1.0" encoding="utf-8"?>
<!-- Generator: Adobe Illustrator 21.0.0, SVG Export Plug-In . SVG Version: 6.00 Build 0)  -->
<svg version="1.1" id="Capa_1" xmlns="http://www.w3.org/2000/svg" xmlns:xlink="http://www.w3.org/1999/xlink" x="0px" y="0px"
	 viewBox="0 0 512 512" style="enable-background:new 0 0 512 512;" xml:space="preserve">
<style type="text/css">
	.st0{fill:#0086FF;}
</style>
<g>
	<g>
		<path class="st0" d="M359.1,10H152.9C74.1,10,10,74.1,10,152.9v206.2C10,437.9,74.1,502,152.9,502h206.2
			c78.8,0,142.9-64.1,142.9-142.9V152.9C502,74.1,437.9,10,359.1,10z M463.6,359.1c0,57.6-46.9,104.5-104.5,104.5H152.9
			c-57.6,0-104.5-46.9-104.5-104.5V152.9c0-57.6,46.9-104.5,104.5-104.5h206.2c57.6,0,104.5,46.9,104.5,104.5V359.1z"/>
	</g>
</g>
<g>
	<g>
		<path class="st0" d="M256,123.4c-73.1,0-132.6,59.5-132.6,132.6S182.9,388.6,256,388.6S388.6,329.1,388.6,256
			S329.1,123.4,256,123.4z M256,350.2c-51.9,0-94.2-42.2-94.2-94.2s42.2-94.2,94.2-94.2s94.2,42.2,94.2,94.2S307.9,350.2,256,350.2z
			"/>
	</g>
</g>
<g>
	<g>
		<circle class="st0" cx="390.5" cy="121.5" r="19.2"/>
	</g>
</g>
</svg>
