<?xml version="1.0" encoding="utf-8"?>
<!-- Generator: Adobe Illustrator 21.0.0, SVG Export Plug-In . SVG Version: 6.00 Build 0)  -->
<svg version="1.1" id="Capa_1" xmlns="http://www.w3.org/2000/svg" xmlns:xlink="http://www.w3.org/1999/xlink" x="0px" y="0px"
	 viewBox="0 0 268.8 226" style="enable-background:new 0 0 268.8 226;" xml:space="preserve">
<style type="text/css">
	.st0{fill:#0086FF;}
</style>
<path class="st0" d="M58.5,68.3H23c-5.5,0-10-4.5-10-10V22.8c0-5.5,4.5-10,10-10h35.5c5.5,0,10,4.5,10,10v35.5
	C68.5,63.8,64,68.3,58.5,68.3z"/>
<path class="st0" d="M248,68.3H88.9c-5.5,0-10-4.5-10-10V22.8c0-5.5,4.5-10,10-10H248c5.5,0,10,4.5,10,10v35.5
	C258,63.8,253.5,68.3,248,68.3z"/>
<path class="st0" d="M58.5,141.2H23c-5.5,0-10-4.5-10-10V95.7c0-5.5,4.5-10,10-10h35.5c5.5,0,10,4.5,10,10v35.5
	C68.5,136.8,64,141.2,58.5,141.2z"/>
<path class="st0" d="M248,141.2H88.9c-5.5,0-10-4.5-10-10V95.7c0-5.5,4.5-10,10-10H248c5.5,0,10,4.5,10,10v35.5
	C258,136.8,253.5,141.2,248,141.2z"/>
<path class="st0" d="M58.5,214.2H23c-5.5,0-10-4.5-10-10v-35.5c0-5.5,4.5-10,10-10h35.5c5.5,0,10,4.5,10,10v35.5
	C68.5,209.8,64,214.2,58.5,214.2z"/>
<path class="st0" d="M248,214.2H88.9c-5.5,0-10-4.5-10-10v-35.5c0-5.5,4.5-10,10-10H248c5.5,0,10,4.5,10,10v35.5
	C258,209.8,253.5,214.2,248,214.2z"/>
</svg>
