<svg id="Camada_1" data-name="Camada 1" xmlns="http://www.w3.org/2000/svg" viewBox="0 0 1083.06 137.21"><defs><style>.cls-1{fill:#d8842f;}</style></defs><title>orange_logo</title><path class="cls-1" d="M1046.19,104.75a8.3,8.3,0,0,0,3.8.92,8.21,8.21,0,0,0,4.82-1.55l74.07-53a8.28,8.28,0,0,0-9.64-13.47l-61,43.62V44.4a8.28,8.28,0,0,0-16.56,0v53A8.25,8.25,0,0,0,1046.19,104.75Z" transform="translate(-49.28 -36.07)"/><path class="cls-1" d="M1087.36,110.2a8.25,8.25,0,0,0-11.06-1.29l-31.12,22.26a8.3,8.3,0,0,0-3.46,6.74V165a8.28,8.28,0,0,0,16.56,0V142.16l21.53-15.4,38,43.66a8.28,8.28,0,1,0,12.51-10.87Z" transform="translate(-49.28 -36.07)"/><path class="cls-1" d="M551.35,36.12a8.29,8.29,0,0,0-8.28,8.28V103l-37.65-29.8a4.53,4.53,0,0,0-.87-.54,9.48,9.48,0,0,0-2.68-1A8.51,8.51,0,0,0,496,72.71L457.49,103V44.4a8.28,8.28,0,0,0-16.56,0v75.75a8.31,8.31,0,0,0,4.67,7.45,8.47,8.47,0,0,0,8.75-1L500.28,90.3l45.94,36.35a8.28,8.28,0,0,0,13.41-6.51V44.4A8.29,8.29,0,0,0,551.35,36.12Z" transform="translate(-49.28 -36.07)"/><path class="cls-1" d="M556.49,158.5l-51.07-40.41h0a4.53,4.53,0,0,0-.87-.54,9.48,9.48,0,0,0-2.68-1,7.87,7.87,0,0,0-4.59.43,8.21,8.21,0,0,0-1.28.62l-.42.18L444.07,158.5a8.28,8.28,0,0,0,10.28,13l45.93-36.35,45.93,36.35a8.28,8.28,0,0,0,10.28-13Z" transform="translate(-49.28 -36.07)"/><path class="cls-1" d="M164.79,158.46,62.66,78.86a8.28,8.28,0,0,0-13.38,6.53V165a8.28,8.28,0,0,0,16.56,0V102.34l88.76,69.18a8.3,8.3,0,0,0,5.09,1.75,8.28,8.28,0,0,0,5.09-14.81Z" transform="translate(-49.28 -36.07)"/><path class="cls-1" d="M159.7,36.12a8.29,8.29,0,0,0-8.28,8.28v62.66L62.67,37.88a8.28,8.28,0,1,0-10.2,13L154.6,130.54a8.29,8.29,0,0,0,5.1,1.76A8.27,8.27,0,0,0,168,124V44.4A8.29,8.29,0,0,0,159.7,36.12Z" transform="translate(-49.28 -36.07)"/><path class="cls-1" d="M894.3,92.08a8.32,8.32,0,0,0,7.12,4.06h24a30,30,0,0,0,0-60H875.67a8.28,8.28,0,0,0-7.13,12.5Zm31.11-39.41a13.45,13.45,0,0,1,0,26.9H906.14L890.2,52.67Z" transform="translate(-49.28 -36.07)"/><path class="cls-1" d="M928.52,117.31a4.78,4.78,0,0,0-.77-1,7.49,7.49,0,0,0-1-1,7.93,7.93,0,0,0-1.31-.9,8.26,8.26,0,0,0-1.42-.66,7.7,7.7,0,0,0-1.44-.32,4.72,4.72,0,0,0-1.2-.16H875.67a8.29,8.29,0,0,0-8.28,8.28V165A8.28,8.28,0,0,0,884,165V129.81h32.71L940,169.22a8.28,8.28,0,1,0,14.25-8.44Z" transform="translate(-49.28 -36.07)"/><path class="cls-1" d="M347.9,113.29a8.29,8.29,0,0,0-8.28,8.28,35.13,35.13,0,1,1-70.27,0,8.28,8.28,0,0,0-16.56,0,51.7,51.7,0,1,0,103.4,0A8.29,8.29,0,0,0,347.9,113.29Z" transform="translate(-49.28 -36.07)"/><path class="cls-1" d="M261.07,96a8.29,8.29,0,0,0,8.28-8.28V44.4a8.28,8.28,0,0,0-16.56,0V87.7A8.29,8.29,0,0,0,261.07,96Z" transform="translate(-49.28 -36.07)"/><path class="cls-1" d="M347.9,36.12a8.29,8.29,0,0,0-8.28,8.28V87.7a8.28,8.28,0,0,0,16.56,0V44.4A8.29,8.29,0,0,0,347.9,36.12Z" transform="translate(-49.28 -36.07)"/><path class="cls-1" d="M742.9,42.91a68.26,68.26,0,0,0-98.22,57.81c-.06.77-.08,1.55-.12,2.33,0,.23,0,.46,0,.7a67.56,67.56,0,0,0,6.87,32.07,8.29,8.29,0,0,0,14.17,1.1h0a8.32,8.32,0,0,0,.67-8.5,51.25,51.25,0,0,1-4.72-16,8.4,8.4,0,0,0,0-1.24,51.8,51.8,0,0,1-.4-5.51c0-.55,0-1.09,0-1.65,0-.39,0-.77,0-1.16A60.84,60.84,0,0,1,664.7,85.7,65.06,65.06,0,0,1,681,62.14a9,9,0,0,1,1.95-1.4c19.92-10.61,38.21-9.9,52.59-3a8.29,8.29,0,0,0,7.35-14.86Z" transform="translate(-49.28 -36.07)"/><path class="cls-1" d="M683.6,166.43a68.26,68.26,0,0,0,98.22-57.81c.06-.77.08-1.55.12-2.33,0-.23,0-.46,0-.7a67.56,67.56,0,0,0-6.87-32.07,8.29,8.29,0,0,0-14.17-1.1h0a8.32,8.32,0,0,0-.67,8.5A51.25,51.25,0,0,1,765,97a8.4,8.4,0,0,0,0,1.24,51.8,51.8,0,0,1,.4,5.51c0,.55,0,1.09,0,1.65,0,.39,0,.77,0,1.16a60.84,60.84,0,0,1-3.54,17.13,65.06,65.06,0,0,1-16.32,23.56,9,9,0,0,1-1.95,1.4c-19.92,10.61-38.21,9.9-52.59,3a8.29,8.29,0,0,0-7.35,14.86Z" transform="translate(-49.28 -36.07)"/></svg>