<?xml version="1.0" encoding="utf-8"?>
<!-- Generator: Adobe Illustrator 21.0.0, SVG Export Plug-In . SVG Version: 6.00 Build 0)  -->
<svg version="1.1" id="Capa_1" xmlns="http://www.w3.org/2000/svg" xmlns:xlink="http://www.w3.org/1999/xlink" x="0px" y="0px"
	 viewBox="0 0 512 512" style="enable-background:new 0 0 512 512;" xml:space="preserve">
<g>
	<g>
		<path d="M123.9,268.5c-11.4,0-20.6,9.2-20.6,20.6c0,11.4,9.2,20.6,20.6,20.6c11.4,0,20.6-9.2,20.6-20.6
			C144.5,277.7,135.3,268.5,123.9,268.5z M123.9,296.1c-3.9,0-7-3.1-7-7s3.1-7,7-7c3.9,0,7,3.1,7,7S127.8,296.1,123.9,296.1z"/>
	</g>
</g>
<g>
	<g>
		<path d="M95.5,389.6c-0.6-1.8-2.3-3-4.1-3H65.5l-8-24.6c-0.6-1.8-2.3-3-4.1-3c-1.9,0-3.6,1.2-4.1,3l-8,24.6H15.4
			c-1.9,0-3.6,1.2-4.1,3c-0.6,1.8,0.1,3.8,1.6,4.9l20.9,15.2l-8,24.6c-0.6,1.7,0,3.6,1.4,4.8c1.5,1.2,3.7,1.2,5.3,0.1l20.9-15.2
			l20.9,15.2c1.6,1.2,3.9,1.1,5.5-0.3c1.3-1.1,1.8-3,1.3-4.6l-8-24.6l20.9-15.2C95.5,393.4,96.1,391.4,95.5,389.6z M65.3,404.5
			c-1.5,1.1-2.2,3.1-1.6,4.9l4.8,14.9L55.9,415c-1.5-1.1-3.6-1.1-5.1,0l-12.6,9.2l4.8-14.9c0.6-1.8-0.1-3.8-1.6-4.9l-12.6-9.2h15.6
			c1.9,0,3.6-1.2,4.1-3l4.8-14.9l4.8,14.9c0.6,1.8,2.3,3,4.1,3H78L65.3,404.5z"/>
	</g>
</g>
<g>
	<g>
		<path d="M197.7,389.6c-0.6-1.8-2.3-3-4.1-3h-25.9l-8-24.6c-0.6-1.8-2.3-3-4.1-3c-1.9,0-3.6,1.2-4.1,3l-8,24.6h-25.9
			c-1.9,0-3.6,1.2-4.1,3c-0.6,1.8,0.1,3.8,1.6,4.9l20.9,15.2l-8,24.6c-0.6,1.7,0,3.6,1.4,4.8c1.5,1.2,3.7,1.2,5.3,0.1l20.9-15.2
			l20.9,15.2c1.6,1.2,3.9,1.1,5.5-0.3c1.3-1.1,1.8-3,1.3-4.6l-8-24.6l20.9-15.2C197.7,393.4,198.3,391.4,197.7,389.6z M167.5,404.5
			c-1.5,1.1-2.2,3.1-1.6,4.9l4.8,14.9l-12.6-9.2c-1.5-1.1-3.6-1.1-5.1,0l-12.6,9.2l4.8-14.9c0.6-1.8-0.1-3.8-1.6-4.9l-12.6-9.2h15.6
			c1.9,0,3.6-1.2,4.1-3l4.8-14.9l4.8,14.9c0.6,1.8,2.3,3,4.1,3h15.6L167.5,404.5z"/>
	</g>
</g>
<g>
	<g>
		<path d="M299.9,389.6c-0.6-1.8-2.3-3-4.1-3h-25.9l-8-24.6c-0.6-1.8-2.3-3-4.1-3c-1.9,0-3.6,1.2-4.1,3l-8,24.6h-25.9
			c-1.9,0-3.6,1.2-4.1,3c-0.6,1.8,0.1,3.8,1.6,4.9l20.9,15.2l-8,24.6c-0.6,1.7,0,3.6,1.4,4.8c1.5,1.2,3.7,1.2,5.3,0.1l20.9-15.2
			l20.9,15.2c1.6,1.2,3.9,1.1,5.5-0.3c1.3-1.1,1.8-3,1.3-4.6l-8-24.6l20.9-15.2C299.8,393.4,300.5,391.4,299.9,389.6z M269.7,404.5
			c-1.5,1.1-2.2,3.1-1.6,4.9l4.8,14.9l-12.6-9.2c-1.5-1.1-3.6-1.1-5.1,0l-12.6,9.2l4.8-14.9c0.6-1.8-0.1-3.8-1.6-4.9l-12.6-9.2h15.6
			c1.9,0,3.6-1.2,4.1-3l4.8-14.9l4.8,14.9c0.6,1.8,2.3,3,4.1,3h15.6L269.7,404.5z"/>
	</g>
</g>
<g>
	<g>
		<path d="M400.8,389.6c-0.6-1.8-2.3-3-4.1-3h-25.9l-8-24.6c-0.6-1.8-2.3-3-4.1-3c-1.9,0-3.6,1.2-4.1,3l-8,24.6h-25.9
			c-1.9,0-3.6,1.2-4.1,3c-0.6,1.8,0.1,3.8,1.6,4.9l20.9,15.2l-8,24.6c-0.6,1.7,0,3.6,1.4,4.8c1.5,1.2,3.7,1.2,5.3,0.1l20.9-15.2
			l20.9,15.2c1.6,1.2,3.9,1.1,5.5-0.3c1.3-1.1,1.8-3,1.3-4.6l-8-24.6l20.9-15.2C400.8,393.4,401.4,391.4,400.8,389.6z M370.6,404.5
			c-1.5,1.1-2.2,3.1-1.6,4.9l4.8,14.9l-12.6-9.2c-1.5-1.1-3.6-1.1-5.1,0l-12.6,9.2l4.8-14.9c0.6-1.8-0.1-3.8-1.6-4.9l-12.6-9.2h15.6
			c1.9,0,3.6-1.2,4.1-3l4.8-14.9l4.8,14.9c0.6,1.8,2.3,3,4.1,3h15.6L370.6,404.5z"/>
	</g>
</g>
<g>
	<g>
		<path d="M501.8,389.6c-0.6-1.8-2.3-3-4.1-3h-25.9l-8-24.6c-0.6-1.8-2.3-3-4.1-3c-1.9,0-3.6,1.2-4.1,3l-8,24.6h-25.9
			c-1.9,0-3.6,1.2-4.1,3c-0.6,1.8,0.1,3.8,1.6,4.9l20.9,15.2l-8,24.6c-0.6,1.7,0,3.6,1.4,4.8c1.5,1.2,3.7,1.2,5.3,0.1l20.9-15.2
			l20.9,15.2c1.6,1.2,3.9,1.1,5.5-0.3c1.3-1.1,1.8-3,1.3-4.6l-8-24.6l20.9-15.2C501.7,393.4,502.4,391.4,501.8,389.6z M471.6,404.5
			c-1.5,1.1-2.2,3.1-1.6,4.9l4.8,14.9l-12.6-9.2c-1.5-1.1-3.6-1.1-5.1,0l-12.6,9.2l4.8-14.9c0.6-1.8-0.1-3.8-1.6-4.9l-12.6-9.2h15.6
			c1.9,0,3.6-1.2,4.1-3l4.8-14.9l4.8,14.9c0.6,1.8,2.3,3,4.1,3h15.6L471.6,404.5z"/>
	</g>
</g>
<g>
	<g>
		<path d="M421,187.8c7-5.6,11.5-14.3,11.5-24c0-17-13.8-30.8-30.8-30.8H292.4c3.4-7.4,7.3-18.7,9.6-34.4
			c5.2-36.4-2.7-55.8-10.2-65.6c-6.4-8.3-14.9-13.3-24.7-14.5c-8.3-1-15.8,5.6-16,13.9c-1.3,13.1-5.9,48.9-12.6,62.2
			c-17.1,34.2-57.9,54.7-70.5,60.3c-4.4-3.8-10.1-6.1-16.4-6.1H96.3c-13.9,0-25.2,11.3-25.2,25.2v138.1c0,13.9,11.3,25.2,25.2,25.2
			h55.2c7.4,0,14.1-3.2,18.7-8.4c7.2,4.5,18.7,9.6,34.7,9.6h177.5c17,0,30.8-13.8,30.8-30.8c0-7.8-2.9-14.9-7.7-20.3
			c10.2-5,17.3-15.5,17.3-27.7c0-7.8-2.9-14.9-7.7-20.3c10.2-5,17.3-15.5,17.3-27.7C432.5,202.1,428,193.4,421,187.8z M151.5,323.7
			H96.3c-6.4,0-11.6-5.2-11.6-11.6V174.1c0-6.4,5.2-11.6,11.6-11.6h55.2c3.2,0,6.2,1.3,8.3,3.5v151.5c0,0.8,0.1,1.6,0.4,2.4
			C158.1,322.2,155,323.7,151.5,323.7z M373.1,194.6h28.5c9.5,0,17.2,7.7,17.2,17.2s-7.7,17.2-17.2,17.2h-28.5c-3.8,0-6.8,3-6.8,6.8
			s3,6.8,6.8,6.8h18.9c9.5,0,17.2,7.7,17.2,17.2s-7.7,17.2-17.2,17.2h-24.2c-3.8,0-6.8,3-6.8,6.8c0,3.8,3,6.8,6.8,6.8h14.6
			c9.5,0,17.2,7.7,17.2,17.2s-7.7,17.2-17.2,17.2H205c-14,0-23.5-4.7-28.7-8.2c0.3-1.5,0.4-3,0.4-4.6V174.1c0-2.7-0.4-5.2-1.2-7.6
			c15.9-7.3,56.7-28.9,75.1-65.7c9.2-18.4,13.8-65.3,14-67.3c0-0.2,0-0.4,0-0.6c0-0.2,0.1-0.4,0.3-0.6c0.2-0.2,0.5-0.2,0.6-0.2
			c4.3,0.5,10.4,2.6,15.6,9.3c5.9,7.7,12,23.6,7.5,55.4c-3.8,26.9-13,38.7-13,38.8c-3.6,4.4-0.4,11.1,5.3,11.1h120.9
			c9.5,0,17.2,7.7,17.2,17.2c0,9.5-7.7,17.2-17.2,17.2h-28.5c-3.8,0-6.8,3-6.8,6.8C366.4,191.5,369.4,194.6,373.1,194.6z"/>
	</g>
</g>
</svg>
