<?xml version="1.0" encoding="utf-8"?>
<!-- Generator: Adobe Illustrator 21.0.0, SVG Export Plug-In . SVG Version: 6.00 Build 0)  -->
<svg version="1.1" id="Capa_1" xmlns="http://www.w3.org/2000/svg" xmlns:xlink="http://www.w3.org/1999/xlink" x="0px" y="0px"
	 viewBox="0 0 512 512" style="enable-background:new 0 0 512 512;" xml:space="preserve">
<g>
	<g>
		<path d="M104.5,335.3c-0.5-1.7-2.1-2.8-3.8-2.8H76.8l-7.4-22.7c-0.5-1.6-2.1-2.8-3.8-2.8s-3.3,1.1-3.8,2.8l-7.4,22.7H30.6
			c-1.7,0-3.3,1.1-3.8,2.8c-0.5,1.7,0.1,3.5,1.5,4.5l19.3,14l-7.4,22.7c-0.5,1.6,0,3.4,1.3,4.4c1.4,1.1,3.4,1.1,4.8,0.1l19.3-14
			l19.3,14c1.5,1.1,3.6,1,5-0.2c1.2-1,1.6-2.7,1.2-4.2l-7.4-22.7l19.3-14C104.4,338.8,105,336.9,104.5,335.3z M76.7,349
			c-1.4,1-2,2.8-1.5,4.5l4.5,13.7L68,358.7c-1.4-1-3.3-1-4.7,0l-11.7,8.5l4.5-13.7c0.5-1.7-0.1-3.5-1.5-4.5L43,340.5h14.4
			c1.7,0,3.3-1.1,3.8-2.8l4.5-13.7l4.5,13.7c0.5,1.7,2.1,2.8,3.8,2.8h14.4L76.7,349z"/>
	</g>
</g>
<g>
	<g>
		<path d="M198.6,284.2c-0.5-1.7-2.1-2.8-3.8-2.8H171l-7.4-22.7c-0.5-1.6-2.1-2.8-3.8-2.8s-3.3,1.1-3.8,2.8l-7.4,22.7h-23.8
			c-1.7,0-3.3,1.1-3.8,2.8c-0.5,1.7,0.1,3.5,1.5,4.5l19.3,14l-7.4,22.7c-0.5,1.6,0,3.4,1.3,4.4c1.4,1.1,3.4,1.1,4.8,0.1l19.3-14
			l19.3,14c1.5,1.1,3.6,1,5-0.2c1.2-1,1.6-2.7,1.2-4.2l-7.4-22.7l19.3-14C198.6,287.7,199.2,285.9,198.6,284.2z M170.8,297.9
			c-1.4,1-2,2.8-1.5,4.5l4.5,13.7l-11.7-8.5c-1.4-1-3.3-1-4.7,0l-11.7,8.5l4.5-13.7c0.5-1.7-0.1-3.5-1.5-4.5l-11.7-8.5h14.4
			c1.7,0,3.3-1.1,3.8-2.8l4.5-13.7l4.5,13.7c0.5,1.7,2.1,2.8,3.8,2.8h14.4L170.8,297.9z"/>
	</g>
</g>
<g>
	<g>
		<path d="M292.8,232.3c-0.5-1.7-2.1-2.8-3.8-2.8h-23.8l-7.4-22.7c-0.5-1.6-2.1-2.8-3.8-2.8c-1.7,0-3.3,1.1-3.8,2.8l-7.4,22.7h-23.8
			c-1.7,0-3.3,1.1-3.8,2.8c-0.5,1.7,0.1,3.5,1.5,4.5l19.3,14l-7.4,22.7c-0.5,1.6,0,3.4,1.3,4.4c1.4,1.1,3.4,1.1,4.8,0.1l19.3-14
			l19.3,14c1.5,1.1,3.6,1,5-0.2c1.2-1,1.6-2.7,1.2-4.2l-7.4-22.7l19.3-14C292.7,235.8,293.3,233.9,292.8,232.3z M265,246
			c-1.4,1-2,2.8-1.5,4.5l4.5,13.7l-11.7-8.5c-1.4-1-3.3-1-4.7,0l-11.7,8.5l4.5-13.7c0.5-1.7-0.1-3.5-1.5-4.5l-11.7-8.5h14.4
			c1.7,0,3.3-1.1,3.8-2.8l4.5-13.7l4.5,13.7c0.5,1.7,2.1,2.8,3.8,2.8h14.4L265,246z"/>
	</g>
</g>
<g>
	<g>
		<path d="M385.8,284.2c-0.5-1.7-2.1-2.8-3.8-2.8h-23.8l-7.4-22.7c-0.5-1.6-2.1-2.8-3.8-2.8c-1.7,0-3.3,1.1-3.8,2.8l-7.4,22.7h-23.8
			c-1.7,0-3.3,1.1-3.8,2.8c-0.5,1.7,0.1,3.5,1.5,4.5l19.3,14l-7.4,22.7c-0.5,1.6,0,3.4,1.3,4.4c1.4,1.1,3.4,1.1,4.8,0.1l19.3-14
			l19.3,14c1.5,1.1,3.6,1,5-0.2c1.2-1,1.6-2.7,1.2-4.2l-7.4-22.7l19.3-14C385.7,287.7,386.3,285.9,385.8,284.2z M358,297.9
			c-1.4,1-2,2.8-1.5,4.5l4.5,13.7l-11.7-8.5c-1.4-1-3.3-1-4.7,0l-11.7,8.5l4.5-13.7c0.5-1.7-0.1-3.5-1.5-4.5l-11.7-8.5h14.4
			c1.7,0,3.3-1.1,3.8-2.8L347,273l4.5,13.7c0.5,1.7,2.1,2.8,3.8,2.8h14.4L358,297.9z"/>
	</g>
</g>
<g>
	<g>
		<path d="M478.8,335.3c-0.5-1.7-2.1-2.8-3.8-2.8h-23.8l-7.4-22.7c-0.5-1.6-2.1-2.8-3.8-2.8s-3.3,1.1-3.8,2.8l-7.4,22.7h-23.8
			c-1.7,0-3.3,1.1-3.8,2.8c-0.5,1.7,0.1,3.5,1.5,4.5l19.3,14l-7.4,22.7c-0.5,1.6,0,3.4,1.3,4.4c1.4,1.1,3.4,1.1,4.8,0.1l19.3-14
			l19.3,14c1.5,1.1,3.6,1,5-0.2c1.2-1,1.6-2.7,1.2-4.2l-7.4-22.7l19.3-14C478.8,338.8,479.3,336.9,478.8,335.3z M451,349
			c-1.4,1-2,2.8-1.5,4.5l4.5,13.7l-11.7-8.5c-1.4-1-3.3-1-4.7,0l-11.7,8.5l4.5-13.7c0.5-1.7-0.1-3.5-1.5-4.5l-11.7-8.5h14.4
			c1.7,0,3.3-1.1,3.8-2.8l4.5-13.7l4.5,13.7c0.5,1.7,2.1,2.8,3.8,2.8h14.4L451,349z"/>
	</g>
</g>
</svg>
