<?xml version="1.0" encoding="utf-8"?>
<!-- Generator: Adobe Illustrator 21.0.0, SVG Export Plug-In . SVG Version: 6.00 Build 0)  -->
<svg version="1.1" id="Capa_1" xmlns="http://www.w3.org/2000/svg" xmlns:xlink="http://www.w3.org/1999/xlink" x="0px" y="0px"
	 viewBox="0 0 462.4 396" style="enable-background:new 0 0 462.4 396;" xml:space="preserve">
<g>
	<path d="M362.7,25.2h-287c-34.5,0-62.5,28-62.5,62.5v150c0,34.5,28,62.5,62.5,62.5h153.7l-10-10H75.7c-29,0-52.5-23.5-52.5-52.5
		v-150c0-29,23.5-52.5,52.5-52.5h287c29,0,52.5,23.5,52.5,52.5v150c0,19.7-10.9,36.9-27,45.9c-3.1,1.8-6.4,3.2-9.9,4.3v10.4
		c3.4-0.9,6.7-2.1,9.9-3.5c21.8-9.8,37-31.7,37-57.1v-150C425.2,53.2,397.2,25.2,362.7,25.2z"/>
</g>
<g>
	<g>
		<path d="M368.4,208.7c-4.1,0-7.9,1.2-11,3.3c-2.7-7.7-10.1-13.2-18.7-13.2c-4.1,0-7.9,1.2-11,3.3c-2.7-7.7-10.1-13.2-18.7-13.2
			c-3.6,0-7,1-9.9,2.7v-32.4c0-10.9-8.9-19.8-19.8-19.8c-10.9,0-19.8,8.9-19.8,19.8v115.7l-27.2-13.6c-4.1-2-8.7-3.1-13.3-3.1
			c-10.4,0-18.9,8.5-18.9,19c0,4.9,1.8,9.5,5.2,13c0.1,0.1,0.2,0.2,0.3,0.3l9.7,9.7l54.3,54.3c14.5,14.5,33.7,22.4,54.2,22.4
			c35.5,0,64.3-28.9,64.3-64.3v-84.1C388.2,217.6,379.3,208.7,368.4,208.7z M378.3,312.6c0,30-24.4,54.4-54.4,54.4
			c-17.8,0-34.6-6.9-47.1-19.5l-47.3-47.3l-16.7-16.7c-1.7-1.7-2.6-4-2.6-6.4c0-5,4-9,9-9c3.1,0,6.1,0.7,8.8,2.1l34.4,17.2
			c1.5,0.8,3.4,0.7,4.8-0.2s2.3-2.5,2.3-4.2V159.2c0-5.5,4.4-9.9,9.9-9.9c5.5,0,9.9,4.4,9.9,9.9v94c0,2.7,2.2,5,5,5s5-2.2,5-5v-44.5
			c0-5.5,4.4-9.9,9.9-9.9c5.5,0,9.9,4.5,9.9,9.9v44.5c0,2.7,2.2,5,4.9,5c2.7,0,5-2.2,5-5v-34.6c0-5.5,4.4-9.9,9.9-9.9
			c5.5,0,9.9,4.4,9.9,9.9v34.6c0,2.7,2.2,5,5,5s5-2.2,5-5v-24.7c0-5.5,4.4-9.9,9.9-9.9c5.5,0,9.9,4.4,9.9,9.9V312.6z"/>
	</g>
</g>
<path d="M373.8,79.2h-307c-2.5,0-4.5-2-4.5-4.5v0c0-2.5,2-4.5,4.5-4.5h307c2.5,0,4.5,2,4.5,4.5v0C378.3,77.2,376.3,79.2,373.8,79.2z
	"/>
<path d="M206.9,132.2H66.8c-2.5,0-4.5-2-4.5-4.5v0c0-2.5,2-4.5,4.5-4.5h140.1c2.5,0,4.5,2,4.5,4.5v0
	C211.4,130.2,209.4,132.2,206.9,132.2z"/>
<path d="M206.9,163.2H66.8c-2.5,0-4.5-2-4.5-4.5v0c0-2.5,2-4.5,4.5-4.5h140.1c2.5,0,4.5,2,4.5,4.5v0
	C211.4,161.2,209.4,163.2,206.9,163.2z"/>
<path d="M206.9,193.7H66.8c-2.5,0-4.5-2-4.5-4.5v0c0-2.5,2-4.5,4.5-4.5h140.1c2.5,0,4.5,2,4.5,4.5v0
	C211.4,191.7,209.4,193.7,206.9,193.7z"/>
<path d="M206.9,222.8H66.8c-2.5,0-4.5-2-4.5-4.5v0c0-2.5,2-4.5,4.5-4.5h140.1c2.5,0,4.5,2,4.5,4.5v0
	C211.4,220.8,209.4,222.8,206.9,222.8z"/>
</svg>
