<?xml version="1.0" encoding="utf-8"?>
<!-- Generator: Adobe Illustrator 21.0.0, SVG Export Plug-In . SVG Version: 6.00 Build 0)  -->
<svg version="1.1" id="Capa_1" xmlns="http://www.w3.org/2000/svg" xmlns:xlink="http://www.w3.org/1999/xlink" x="0px" y="0px"
	 viewBox="0 0 732.1 731.7" style="enable-background:new 0 0 732.1 731.7;" xml:space="preserve">
<style type="text/css">
	.st0{fill:#0086FF;stroke:#0086FF;stroke-width:4;stroke-miterlimit:10;}
	.st1{fill:none;stroke:#0086FF;stroke-width:15;stroke-miterlimit:10;}
</style>
<g>
	<path class="st0" d="M509.7,231.9h-287c-34.5,0-62.5,28-62.5,62.5v150c0,34.5,28,62.5,62.5,62.5h153.7l-10-10H222.7
		c-29,0-52.5-23.5-52.5-52.5v-150c0-29,23.5-52.5,52.5-52.5h287c29,0,52.5,23.5,52.5,52.5v150c0,19.7-10.9,36.9-27,45.9
		c-3.1,1.8-6.4,3.2-9.9,4.3v10.4c3.4-0.9,6.7-2.1,9.9-3.5c21.8-9.8,37-31.7,37-57.1v-150C572.2,259.9,544.2,231.9,509.7,231.9z"/>
</g>
<g>
	<g>
		<path class="st0" d="M515.4,415.4c-4.1,0-7.9,1.2-11,3.3c-2.7-7.7-10.1-13.2-18.7-13.2c-4.1,0-7.9,1.2-11,3.3
			c-2.7-7.7-10.1-13.2-18.7-13.2c-3.6,0-7,1-9.9,2.7v-32.4c0-10.9-8.9-19.8-19.8-19.8c-10.9,0-19.8,8.9-19.8,19.8v115.7L379.4,468
			c-4.1-2-8.7-3.1-13.3-3.1c-10.4,0-18.9,8.5-18.9,19c0,4.9,1.8,9.5,5.2,13c0.1,0.1,0.2,0.2,0.3,0.3l9.7,9.7l54.3,54.3
			c14.5,14.5,33.7,22.4,54.2,22.4c35.5,0,64.3-28.9,64.3-64.3v-84.1C535.2,424.3,526.3,415.4,515.4,415.4z M525.3,519.3
			c0,30-24.4,54.4-54.4,54.4c-17.8,0-34.6-6.9-47.1-19.5l-47.3-47.3l-16.7-16.7c-1.7-1.7-2.6-4-2.6-6.4c0-5,4-9,9-9
			c3.1,0,6.1,0.7,8.8,2.1l34.4,17.2c1.5,0.8,3.4,0.7,4.8-0.2s2.3-2.5,2.3-4.2V365.9c0-5.5,4.4-9.9,9.9-9.9c5.5,0,9.9,4.4,9.9,9.9v94
			c0,2.7,2.2,5,5,5s5-2.2,5-5v-44.5c0-5.5,4.4-9.9,9.9-9.9c5.5,0,9.9,4.5,9.9,9.9v44.5c0,2.7,2.2,5,4.9,5c2.7,0,5-2.2,5-5v-34.6
			c0-5.5,4.4-9.9,9.9-9.9c5.5,0,9.9,4.4,9.9,9.9v34.6c0,2.7,2.2,5,5,5s5-2.2,5-5v-24.7c0-5.5,4.4-9.9,9.9-9.9c5.5,0,9.9,4.4,9.9,9.9
			V519.3z"/>
	</g>
</g>
<path class="st0" d="M520.8,285.9h-307c-2.5,0-4.5-2-4.5-4.5v0c0-2.5,2-4.5,4.5-4.5h307c2.5,0,4.5,2,4.5,4.5v0
	C525.3,283.8,523.3,285.9,520.8,285.9z"/>
<path class="st0" d="M353.9,338.9H213.8c-2.5,0-4.5-2-4.5-4.5v0c0-2.5,2-4.5,4.5-4.5h140.1c2.5,0,4.5,2,4.5,4.5v0
	C358.4,336.8,356.4,338.9,353.9,338.9z"/>
<path class="st0" d="M353.9,369.9H213.8c-2.5,0-4.5-2-4.5-4.5v0c0-2.5,2-4.5,4.5-4.5h140.1c2.5,0,4.5,2,4.5,4.5v0
	C358.4,367.8,356.4,369.9,353.9,369.9z"/>
<path class="st0" d="M353.9,400.4H213.8c-2.5,0-4.5-2-4.5-4.5v0c0-2.5,2-4.5,4.5-4.5h140.1c2.5,0,4.5,2,4.5,4.5v0
	C358.4,398.3,356.4,400.4,353.9,400.4z"/>
<path class="st0" d="M353.9,429.5H213.8c-2.5,0-4.5-2-4.5-4.5v0c0-2.5,2-4.5,4.5-4.5h140.1c2.5,0,4.5,2,4.5,4.5v0
	C358.4,427.5,356.4,429.5,353.9,429.5z"/>
<circle class="st1" cx="367.3" cy="365.4" r="339.3"/>
</svg>
