<?xml version="1.0" encoding="utf-8"?>
<!-- Generator: Adobe Illustrator 21.0.0, SVG Export Plug-In . SVG Version: 6.00 Build 0)  -->
<svg version="1.1" id="Capa_1" xmlns="http://www.w3.org/2000/svg" xmlns:xlink="http://www.w3.org/1999/xlink" x="0px" y="0px"
	 viewBox="0 0 462.4 396" style="enable-background:new 0 0 462.4 396;" xml:space="preserve">
<g>
	<g>
		<g>
			<path d="M424.3,201.7c-4.1,0-7.9,1.2-11,3.3c-2.7-7.7-10.1-13.2-18.7-13.2c-4.1,0-7.9,1.2-11,3.3c-2.7-7.7-10.1-13.2-18.7-13.2
				c-3.6,0-7,1-9.9,2.7v-32.4c0-3.6-1-7-2.7-9.9c-3.4-5.9-9.8-9.9-17.1-9.9c-7.3,0-13.7,4-17.1,9.9c-1.7,2.9-2.7,6.3-2.7,9.9v115.7
				l-27.2-13.6c-4.1-2-8.7-3.1-13.3-3.1c-10.4,0-18.9,8.5-18.9,19c0,4.9,1.8,9.5,5.2,13c0.1,0.1,0.2,0.2,0.3,0.3l64,64
				c14.5,14.5,33.7,22.4,54.2,22.4c35.5,0,64.3-28.9,64.3-64.3v-84.1C444,210.6,435.2,201.7,424.3,201.7z M434.1,305.6
				c0,30-24.4,54.4-54.4,54.4c-17.8,0-34.6-6.9-47.1-19.5l-47.3-47.3l-16.7-16.7c-1.7-1.7-2.6-4-2.6-6.4c0-5,4-9,9-9
				c3.1,0,6.1,0.7,8.8,2.1l34.4,17.2c1.5,0.8,3.4,0.7,4.8-0.2s2.3-2.5,2.3-4.2V152.2c0-5.5,4.4-9.9,9.9-9.9s9.9,4.4,9.9,9.9v94
				c0,2.7,2.2,5,5,5c2.7,0,4.9-2.2,4.9-5v-44.5c0-5.5,4.4-9.9,9.9-9.9s9.9,4.5,9.9,9.9v44.5c0,2.7,2.2,5,4.9,5c2.7,0,4.9-2.2,4.9-5
				v-34.6c0-5.5,4.4-9.9,9.9-9.9c5.5,0,9.9,4.4,9.9,9.9v34.6c0,2.7,2.2,5,5,5c2.7,0,4.9-2.2,4.9-5v-24.7c0-5.5,4.4-9.9,9.9-9.9
				c5.5,0,9.9,4.4,9.9,9.9V305.6z"/>
		</g>
	</g>
</g>
<g>
	<path d="M199,154.4H77.6c-20.5,0-37.2-16.7-37.2-37.2V74.5C40.3,54,57,37.3,77.6,37.3H199c20.5,0,37.2,16.7,37.2,37.2v42.6
		C236.2,137.7,219.5,154.4,199,154.4z M77.6,47.3c-15,0-27.2,12.2-27.2,27.2v42.6c0,15,12.2,27.2,27.2,27.2H199
		c15,0,27.2-12.2,27.2-27.2V74.5c0-15-12.2-27.2-27.2-27.2H77.6z"/>
</g>
<g>
	<path d="M194.6,70.2H77.9c-2.8,0-5-2.2-5-5v0c0-2.8,2.2-5,5-5h116.7c2.8,0,5,2.2,5,5v0C199.6,68,197.3,70.2,194.6,70.2z"/>
</g>
<g>
	<path d="M194.6,131.5H77.9c-2.8,0-5-2.2-5-5v0c0-2.8,2.2-5,5-5h116.7c2.8,0,5,2.2,5,5v0C199.6,129.3,197.3,131.5,194.6,131.5z"/>
</g>
<g>
	<path d="M135.3,92.2H77.9c-2.8,0-5-2.2-5-5v0c0-2.8,2.2-5,5-5h57.3c2.8,0,5,2.2,5,5v0C140.3,90,138,92.2,135.3,92.2z"/>
</g>
<g>
	<path d="M135.3,111.9H77.9c-2.8,0-5-2.2-5-5v0c0-2.8,2.2-5,5-5h57.3c2.8,0,5,2.2,5,5v0C140.3,109.6,138,111.9,135.3,111.9z"/>
</g>
<g>
	<path d="M194.6,110.5h-43.7c-2.8,0-5-2.2-5-5V86.1c0-2.8,2.2-5,5-5h43.7c2.8,0,5,2.2,5,5v19.4C199.6,108.3,197.3,110.5,194.6,110.5
		z"/>
</g>
<g>
	<path d="M199,294.9H77.6c-20.5,0-37.2-16.7-37.2-37.2v-42.6c0-20.5,16.7-37.2,37.2-37.2H199c20.5,0,37.2,16.7,37.2,37.2v42.6
		C236.2,278.2,219.5,294.9,199,294.9z M77.6,187.9c-15,0-27.2,12.2-27.2,27.2v42.6c0,15,12.2,27.2,27.2,27.2H199
		c15,0,27.2-12.2,27.2-27.2v-42.6c0-15-12.2-27.2-27.2-27.2H77.6z"/>
</g>
<g>
	<path d="M194.6,210.8H77.9c-2.8,0-5-2.2-5-5l0,0c0-2.8,2.2-5,5-5h116.7c2.8,0,5,2.2,5,5l0,0C199.6,208.5,197.3,210.8,194.6,210.8z"
		/>
</g>
<g>
	<path d="M194.6,272.1H77.9c-2.8,0-5-2.2-5-5l0,0c0-2.8,2.2-5,5-5h116.7c2.8,0,5,2.2,5,5l0,0C199.6,269.9,197.3,272.1,194.6,272.1z"
		/>
</g>
<g>
	<path d="M135.3,232.8H77.9c-2.8,0-5-2.2-5-5l0,0c0-2.8,2.2-5,5-5h57.3c2.8,0,5,2.2,5,5l0,0C140.3,230.5,138,232.8,135.3,232.8z"/>
</g>
<g>
	<path d="M135.3,252.4H77.9c-2.8,0-5-2.2-5-5v0c0-2.8,2.2-5,5-5h57.3c2.8,0,5,2.2,5,5v0C140.3,250.2,138,252.4,135.3,252.4z"/>
</g>
<g>
	<path d="M194.6,251.1h-43.7c-2.8,0-5-2.2-5-5v-19.4c0-2.8,2.2-5,5-5h43.7c2.8,0,5,2.2,5,5v19.4
		C199.6,248.8,197.3,251.1,194.6,251.1z"/>
</g>
<g>
	<path d="M404.3,154.4h-59.7v-10h59.7c15,0,27.3-12.2,27.3-27.2V74.5c0-15-12.2-27.3-27.3-27.3H282.9c-15,0-27.2,12.2-27.2,27.3
		v42.6c0,15,12.2,27.2,27.2,27.2h42.8v10h-42.8c-20.5,0-37.2-16.7-37.2-37.2V74.5c0-20.5,16.7-37.3,37.2-37.3h121.4
		c20.5,0,37.3,16.7,37.3,37.3v42.6C441.6,137.6,424.9,154.4,404.3,154.4z"/>
</g>
<g>
	<path d="M400,70.2H283.3c-2.8,0-5-2.2-5-5v0c0-2.8,2.2-5,5-5H400c2.8,0,5,2.2,5,5v0C405,68,402.7,70.2,400,70.2z"/>
</g>
<g>
	<path d="M400,131.5H283.3c-2.8,0-5-2.2-5-5v0c0-2.8,2.2-5,5-5H400c2.8,0,5,2.2,5,5v0C405,129.3,402.7,131.5,400,131.5z"/>
</g>
<g>
	<path d="M340.6,92.2h-57.3c-2.8,0-5-2.2-5-5v0c0-2.8,2.2-5,5-5h57.3c2.8,0,5,2.2,5,5v0C345.6,90,343.4,92.2,340.6,92.2z"/>
</g>
<g>
	<path d="M340.6,111.9h-57.3c-2.8,0-5-2.2-5-5v0c0-2.8,2.2-5,5-5h57.3c2.8,0,5,2.2,5,5v0C345.6,109.6,343.4,111.9,340.6,111.9z"/>
</g>
<g>
	<path d="M400,110.5h-43.7c-2.8,0-5-2.2-5-5V86.1c0-2.8,2.2-5,5-5H400c2.8,0,5,2.2,5,5v19.4C405,108.3,402.7,110.5,400,110.5z"/>
</g>
</svg>
