<?xml version="1.0" encoding="utf-8"?>
<!-- Generator: Adobe Illustrator 21.0.0, SVG Export Plug-In . SVG Version: 6.00 Build 0)  -->
<svg version="1.1" id="Capa_1" xmlns="http://www.w3.org/2000/svg" xmlns:xlink="http://www.w3.org/1999/xlink" x="0px" y="0px"
	 viewBox="0 0 512 512" style="enable-background:new 0 0 512 512;" xml:space="preserve">
<style type="text/css">
	.st0{fill:#FFFFFF;}
</style>
<g>
	<path class="st0" d="M256,43.3c117.3,0,212.7,95.4,212.7,212.7S373.3,468.7,256,468.7S43.3,373.3,43.3,256S138.7,43.3,256,43.3
		 M256,12.9C121.8,12.9,12.9,121.8,12.9,256S121.8,499.1,256,499.1S499.1,390.2,499.1,256S390.2,12.9,256,12.9L256,12.9z M256,73.7
		C155.3,73.7,73.7,155.3,73.7,256S155.3,438.3,256,438.3S438.3,356.7,438.3,256S356.7,73.7,256,73.7z M322.3,349.9
		c-12,13.4-29.2,21.3-51.8,23.7V408h-28.8v-34.2c-37.7-3.9-60.9-25.8-69.9-65.6l44.5-11.6c4.1,25.1,17.8,37.6,40.9,37.6
		c10.8,0,18.8-2.7,23.9-8c5.1-5.4,7.7-11.8,7.7-19.4c0-7.9-2.6-13.8-7.7-17.9s-16.5-9.2-34.1-15.4c-15.8-5.5-28.2-10.9-37.1-16.3
		c-8.9-5.3-16.1-12.8-21.7-22.5c-5.5-9.7-8.3-20.9-8.3-33.8c0-16.8,5-32,14.9-45.5c9.9-13.4,25.5-21.7,46.8-24.7v-26.6h28.8v26.6
		c32.2,3.9,53,22,62.5,54.6l-39.6,16.3c-7.7-22.3-19.7-33.5-35.9-33.5c-8.1,0-14.7,2.5-19.6,7.5c-4.9,5-7.4,11-7.4,18.1
		c0,7.2,2.4,12.8,7.1,16.7c4.7,3.9,14.9,8.6,30.4,14.4c17.1,6.2,30.5,12.1,40.2,17.7c9.7,5.5,17.5,13.2,23.3,23s8.7,21.2,8.7,34.3
		C340.2,319.7,334.2,336.5,322.3,349.9z"/>
</g>
</svg>
