<?xml version="1.0" encoding="utf-8"?>
<!-- Generator: Adobe Illustrator 21.0.0, SVG Export Plug-In . SVG Version: 6.00 Build 0)  -->
<svg version="1.1" id="Camada_1" xmlns="http://www.w3.org/2000/svg" xmlns:xlink="http://www.w3.org/1999/xlink" x="0px" y="0px"
	 viewBox="0 0 512 512" style="enable-background:new 0 0 512 512;" xml:space="preserve">
<style type="text/css">
	.st0{fill:#0086FF;stroke:#0086FF;stroke-width:8;stroke-miterlimit:10;}
</style>
<path class="st0" d="M330.1,234.4l-106.4-58.2c-6.1-3.4-13.4-3.2-19.4,0.4c-6,3.6-9.6,9.9-9.6,16.8v115.3c0,7,3.6,13.2,9.5,16.7
	c3.1,1.9,6.6,2.8,10.1,2.8c3.2,0,6.3-0.8,9.2-2.4l106.4-57.2c6.3-3.4,10.3-10,10.3-17.1C340.3,244.4,336.4,237.8,330.1,234.4z
	 M223,294.2v-86.3l79.5,43.6L223,294.2z"/>
<path class="st0" d="M493.2,159.6v-0.2c-0.4-3.9-4.5-38.4-21.3-55.9c-19.4-20.7-41.3-23.1-51.8-24.4c-0.8-0.1-1.7-0.2-2.4-0.3
	l-0.8-0.1c-63.8-4.6-159.9-5.3-160.9-5.3H256h-0.1c-0.9,0-97.1,0.7-161.3,5.3l-0.8,0.1c-0.7,0.1-1.4,0.2-2.3,0.3
	c-10.4,1.2-32.2,3.7-51.6,25.1c-16,17.3-20.6,51.1-21.1,54.8l-0.1,0.5c-0.1,1.6-3.5,40.1-3.5,78.6v36c0,38.6,3.4,76.9,3.6,78.5v0.3
	c0.4,3.9,4.4,37.6,21.2,55.2c18.2,19.9,41.3,22.6,53.6,24c2,0.2,3.7,0.4,4.8,0.7l1.1,0.2c36.8,3.5,152,5.3,156.9,5.3h0.2h0.2
	c0.9,0,97.1-0.7,160.8-5.3l0.8-0.1c0.8-0.1,1.7-0.2,2.7-0.3c10.3-1.1,32-3.4,51.2-24.5c16-17.3,20.6-51.1,21.1-54.8l0.1-0.5
	c0.2-1.6,3.6-40,3.6-78.5v-36C496.8,199.7,493.4,161.2,493.2,159.6z M468.6,274.2c0,35.7-3.1,72.4-3.4,75.8
	c-1.2,9.3-6,30.7-13.8,39.1c-12,13.2-24.3,14.5-33.3,15.4c-1.1,0.1-2.1,0.2-3,0.4c-61.6,4.4-154.1,5.2-158.4,5.2
	c-4.8-0.1-118.3-1.8-154-5.1c-1.8-0.3-3.8-0.6-5.9-0.8c-10.5-1.2-25-2.8-36.1-15.1l-0.3-0.3c-7.6-8-12.4-27.9-13.5-38.7
	c-0.2-2.5-3.4-39.7-3.4-75.9v-36c0-35.7,3.1-72.3,3.4-75.8c1.4-10.9,6.4-31,13.8-39.1C73,109.8,86,108.3,94.7,107.4
	c0.8-0.1,1.6-0.2,2.3-0.3c62.5-4.5,155.7-5.2,159-5.2c3.4,0,96.5,0.7,158.4,5.2c0.8,0.1,1.6,0.2,2.4,0.3c8.8,1,22.3,2.5,34.5,15.6
	l0.1,0.1c7.6,8,12.4,28.3,13.5,39.3c0.2,2.4,3.4,39.7,3.4,75.9v35.9H468.6z"/>
</svg>
